<svg xmlns="http://www.w3.org/2000/svg" xml:space="preserve" width="1500" height="1500" viewBox="0 0 1500 1500" data-version="1" data-id="lg_5HNdLOVtVfgfrDVa4H" x="0" y="0"><rect width="1500" height="1500" id="background" stroke="transparent" fill="#ffffff"></rect><g id="outer-wrapper" data-padding="20" transform="matrix(1.7857142857142858,0,0,1.7857142857142858,-589.2857142857144,-589.2857142857144)"><g id="inner-wrapper" transform="matrix(0.9642857142857143,0,0,0.9642857142857143,10,7.464285714285722)"><rect width="560" height="418.1" x="86.90740740740739" y="160.97703703703712" fill="none" rx="0" ry="0" transform="translate(400.5 400.01)"></rect><path fill="#85144b" d="M759.6374074074074 886.2770370370371H636.7974074074074L634.5774074074073 846.687037037037H612.0074074074074L609.7874074074074 886.2770370370371H493.2374074074074Q496.93740740740736 825.5970370370371 508.4074074074074 761.7670370370371Q519.8774074074074 697.9470370370371 529.4974074074074 664.2770370370371L538.7474074074074 630.6070370370371H714.1274074074074Q718.1974074074074 643.927037037037 724.4874074074074 667.6070370370371T742.9874074074074 758.437037037037Q755.1974074074074 825.597037037037 759.6374074074074 886.2770370370371M629.3974074074074 754.927037037037H617.5574074074074L614.5974074074074 812.6470370370371H631.9874074074073ZM775.5474074074074 886.2770370370371V630.6070370370371H909.1174074074074Q970.9074074074074 630.6070370370371 1003.6474074074074 660.2070370370371Q1036.3974074074074 689.8070370370372 1036.3974074074074 756.7770370370371Q1036.3974074074074 886.2770370370371 903.9374074074074 886.2770370370371ZM910.2274074074073 738.2770370370371H899.8674074074073V802.2870370370371H910.2274074074073Q914.6674074074074 802.2870370370371 917.8074074074074 799.3270370370371Q920.9574074074073 796.3670370370371 920.9574074074073 791.5570370370372V748.6370370370371Q920.9574074074073 744.1970370370371 917.8074074074074 741.2370370370371Q914.6674074074074 738.2770370370372 910.2274074074073 738.2770370370372 "></path></g><rect width="560" height="418" x="470" y="541" id="space-saver" fill="transparent" stroke="transparent"></rect></g></svg>